<?xml version="1.0" encoding="UTF-8" standalone="no"?>
<!-- Created with Inkscape (http://www.inkscape.org/) -->

<svg
   width="512"
   height="512"
   viewBox="0 0 512 512"
   version="1.1"
   id="svg1"
   inkscape:version="1.4.2 (ebf0e940, 2025-05-08)"
   sodipodi:docname="icon.svg"
   xmlns:inkscape="http://www.inkscape.org/namespaces/inkscape"
   xmlns:sodipodi="http://sodipodi.sourceforge.net/DTD/sodipodi-0.dtd"
   xmlns="http://www.w3.org/2000/svg"
   xmlns:svg="http://www.w3.org/2000/svg">
  <sodipodi:namedview
     id="namedview1"
     pagecolor="#ffffff"
     bordercolor="#666666"
     borderopacity="1.0"
     inkscape:showpageshadow="2"
     inkscape:pageopacity="0.0"
     inkscape:pagecheckerboard="0"
     inkscape:deskcolor="#d1d1d1"
     inkscape:document-units="px"
     inkscape:zoom="0.9428959"
     inkscape:cx="211.58221"
     inkscape:cy="345.21308"
     inkscape:window-width="1472"
     inkscape:window-height="916"
     inkscape:window-x="0"
     inkscape:window-y="38"
     inkscape:window-maximized="0"
     inkscape:current-layer="layer1" />
  <defs
     id="defs1">
    <inkscape:path-effect
       effect="bspline"
       id="path-effect22"
       is_visible="true"
       lpeversion="1.3"
       weight="33.333333"
       steps="2"
       helper_size="0"
       apply_no_weight="true"
       apply_with_weight="true"
       only_selected="false"
       uniform="false" />
    <inkscape:path-effect
       effect="bspline"
       id="path-effect21"
       is_visible="true"
       lpeversion="1.3"
       weight="33.333333"
       steps="2"
       helper_size="0"
       apply_no_weight="true"
       apply_with_weight="true"
       only_selected="false"
       uniform="false" />
    <inkscape:path-effect
       effect="bspline"
       id="path-effect20"
       is_visible="true"
       lpeversion="1.3"
       weight="33.333333"
       steps="2"
       helper_size="0"
       apply_no_weight="true"
       apply_with_weight="true"
       only_selected="false"
       uniform="false" />
    <inkscape:path-effect
       effect="bspline"
       id="path-effect19"
       is_visible="true"
       lpeversion="1.3"
       weight="33.333333"
       steps="2"
       helper_size="0"
       apply_no_weight="true"
       apply_with_weight="true"
       only_selected="false"
       uniform="false" />
    <inkscape:path-effect
       effect="bspline"
       id="path-effect18"
       is_visible="true"
       lpeversion="1.3"
       weight="33.333333"
       steps="2"
       helper_size="0"
       apply_no_weight="true"
       apply_with_weight="true"
       only_selected="false"
       uniform="false" />
    <inkscape:path-effect
       effect="bspline"
       id="path-effect17"
       is_visible="true"
       lpeversion="1.3"
       weight="33.333333"
       steps="2"
       helper_size="0"
       apply_no_weight="true"
       apply_with_weight="true"
       only_selected="false"
       uniform="false" />
    <inkscape:path-effect
       effect="bspline"
       id="path-effect16"
       is_visible="true"
       lpeversion="1.3"
       weight="33.333333"
       steps="2"
       helper_size="0"
       apply_no_weight="true"
       apply_with_weight="true"
       only_selected="false"
       uniform="false" />
    <linearGradient
       id="linearGradient10"
       inkscape:swatch="gradient">
      <stop
         style="stop-color:#000000;stop-opacity:0.17760618;"
         offset="0"
         id="stop10" />
      <stop
         style="stop-color:#00ffff;stop-opacity:0;"
         offset="1"
         id="stop11" />
    </linearGradient>
    <inkscape:path-effect
       effect="bspline"
       id="path-effect5"
       is_visible="true"
       lpeversion="1.3"
       weight="33.333333"
       steps="2"
       helper_size="0"
       apply_no_weight="true"
       apply_with_weight="true"
       only_selected="false"
       uniform="false" />
    <inkscape:path-effect
       effect="bspline"
       id="path-effect4"
       is_visible="true"
       lpeversion="1.3"
       weight="33.333333"
       steps="2"
       helper_size="0"
       apply_no_weight="true"
       apply_with_weight="true"
       only_selected="false"
       uniform="false" />
    <inkscape:path-effect
       effect="bspline"
       id="path-effect3"
       is_visible="true"
       lpeversion="1.3"
       weight="33.333333"
       steps="2"
       helper_size="0"
       apply_no_weight="true"
       apply_with_weight="true"
       only_selected="false"
       uniform="false" />
    <inkscape:path-effect
       effect="bspline"
       id="path-effect2"
       is_visible="true"
       lpeversion="1.3"
       weight="33.333333"
       steps="2"
       helper_size="0"
       apply_no_weight="true"
       apply_with_weight="true"
       only_selected="false"
       uniform="false" />
    <inkscape:path-effect
       effect="bspline"
       id="path-effect1"
       is_visible="true"
       lpeversion="1.3"
       weight="33.333333"
       steps="2"
       helper_size="0"
       apply_no_weight="true"
       apply_with_weight="true"
       only_selected="false"
       uniform="false" />
    <filter
       inkscape:collect="always"
       style="color-interpolation-filters:sRGB"
       id="filter32"
       x="-0.8850148"
       y="-0.35869236"
       width="2.7700296"
       height="1.7173847">
      <feGaussianBlur
         inkscape:collect="always"
         stdDeviation="77.57191"
         id="feGaussianBlur32" />
    </filter>
    <filter
       inkscape:collect="always"
       style="color-interpolation-filters:sRGB"
       id="filter33"
       x="-0.42144128"
       y="-0.1221569"
       width="1.8428826"
       height="1.2443138">
      <feGaussianBlur
         inkscape:collect="always"
         stdDeviation="25.818156"
         id="feGaussianBlur33" />
    </filter>
  </defs>
  <g
     inkscape:label="Layer 1"
     inkscape:groupmode="layer"
     id="layer1">
    <path
       style="fill:#e9c6af;stroke:#000000;stroke-width:1px;stroke-linecap:butt;stroke-linejoin:miter;stroke-opacity:1"
       d="m 316.40114,22.978854 c -25.4535,-6.716896 -70.70417,-3.181688 -106.23327,1.590904 -35.5291,4.772591 -61.3356,10.782324 -75.29969,18.029586 -13.9641,7.247262 -16.08518,15.731591 -15.55487,25.630287 0.53031,9.898697 3.71193,21.211139 4.24219,28.811872 0.53026,7.600737 -1.59082,11.489387 -6.54018,14.140807 -4.94937,2.65142 -12.72668,4.06548 -20.504215,5.65634 -7.777534,1.59086 -15.554838,3.35843 -19.443566,9.19162 -3.888729,5.83319 -3.888729,15.73158 -3.888729,27.22113 0,11.48956 0,24.56957 3.535279,33.05411 3.53528,8.48454 10.605554,12.37319 14.140763,16.43872 3.535208,4.06554 3.535208,8.3077 10.959288,11.84294 7.42409,3.53523 22.27167,6.36334 33.76118,12.72682 11.4895,6.36347 19.62032,16.26186 23.86257,29.51905 4.24226,13.2572 4.59577,29.87235 5.30282,41.00831 0.70705,11.13596 1.7676,16.79218 3.88875,21.56475 2.12116,4.77257 5.30278,8.66122 8.13097,11.66617 2.8282,3.00495 5.30279,5.12603 10.25216,7.42394 4.94937,2.29791 12.37315,4.77251 21.03451,7.24718 8.66136,2.47467 18.55975,4.94926 30.22607,6.18659 11.66632,1.23732 25.09984,1.23732 41.36199,-5.30295 16.26215,-6.54026 35.35189,-19.62027 46.66459,-31.64008 11.31271,-12.01982 14.84784,-22.97875 18.55985,-31.81684 3.71201,-8.83809 7.60066,-15.55485 9.54503,-28.45855 1.94436,-12.9037 1.94436,-31.99344 -0.35357,-49.49288 -2.29793,-17.49944 -6.89361,-33.40756 -11.84295,-44.19 -4.94935,-10.78244 -10.25205,-16.43866 -12.54993,-23.3324 -2.29788,-6.89374 -1.59085,-15.02455 2.65147,-21.91826 4.24233,-6.89372 12.01963,-12.54994 16.08512,-21.034552 4.0655,-8.484614 4.41901,-19.797054 1.76755,-33.938056 -2.65147,-14.141001 -8.30769,-31.109661 -33.76118,-37.826558 z"
       id="path1"
       inkscape:path-effect="#path-effect1"
       inkscape:original-d="m 336.1983,12.72675 c -45.25066,3.535208 -90.50133,7.070416 -135.75199,10.605624 -25.80754,6.009974 -51.61404,12.019708 -77.42106,18.029562 -2.12117,8.48467 -4.24225,16.969 -6.36338,25.453499 3.18175,11.312893 6.36338,22.625333 9.54506,33.937995 -2.12116,3.88881 -4.24225,7.77746 -6.36337,11.66619 -7.77761,1.41411 -15.55492,2.82817 -23.332375,4.24225 -7.777614,1.76764 -15.554917,3.53521 -23.332375,5.30281 0,9.89878 0,19.79717 0,29.69575 0,13.08053 0,26.16054 0,39.24081 7.070558,3.88881 14.140833,7.77746 21.21125,11.66619 0,4.24234 0,8.4845 0,12.72675 14.84817,2.82822 29.69575,5.65633 44.54362,8.4845 8.13114,9.89878 16.26196,19.79717 24.39294,29.69575 0.35353,16.61581 0.70704,33.23096 1.06056,49.84644 1.06059,5.65644 2.12113,11.31266 3.18169,16.969 3.18175,3.8888 6.36337,7.77745 9.54506,11.66618 2.4747,2.12117 4.94929,4.24225 7.42394,6.36338 7.42409,2.47469 14.84787,4.94929 22.27181,7.42393 9.89878,2.4747 19.79717,4.9493 29.69575,7.42394 13.43406,0 26.86758,0 40.30137,0 19.09051,-13.08053 38.18025,-26.16054 57.27038,-39.24081 3.53528,-10.95936 7.07041,-21.91829 10.60562,-32.87744 3.88881,-6.71703 7.77746,-13.43379 11.66619,-20.15068 0,-19.09051 0,-38.18025 0,-57.27038 -4.59586,-15.90875 -9.19154,-31.81687 -13.78731,-47.72531 -5.30292,-5.65644 -10.60563,-11.31266 -15.90844,-16.969 0.70706,-8.13114 1.41408,-16.26195 2.12113,-24.39293 7.77761,-5.65645 15.55491,-11.31267 23.33237,-16.969003 0.35353,-11.312893 0.70704,-22.625333 1.06056,-33.937999 -5.65644,-16.969339 -11.31266,-33.937999 -16.969,-50.906998 z"
       transform="matrix(1.2988367,0,0,1.4665986,-31.223277,-16.217463)" />
    <path
       style="fill:none;stroke:#000000;stroke-width:1px;stroke-linecap:butt;stroke-linejoin:miter;stroke-opacity:1"
       d="m 264.08005,14.847875 c 8.4845,28.988707 16.969,57.977414 22.4486,76.890865 5.47959,18.91345 7.95419,27.7513 9.19152,38.53381 1.23732,10.78251 1.23732,23.50901 1.23732,34.11472 0,10.60571 0,19.09004 2.12117,33.05431 2.12116,13.96426 6.36333,33.40752 11.66621,51.26048 5.30288,17.85297 11.66612,34.1146 8.30754,39.59412 -3.35858,5.47952 -16.43859,0.17681 -29.51886,-5.126"
       id="path2"
       inkscape:path-effect="#path-effect2"
       inkscape:original-d="m 264.08005,14.847875 c 8.4845,28.988707 16.969,57.977414 25.4535,86.966125 2.4747,8.83819 4.9493,17.67604 7.42394,26.51406 0,12.727 0,25.4535 0,38.18025 0,8.48467 0,16.969 0,25.4535 4.24234,19.44403 8.4845,38.88729 12.72675,58.33093 6.3635,16.26229 12.72675,32.52392 19.09013,48.78588 -13.08054,-5.30292 -26.16055,-10.60563 -39.24082,-15.90844" />
    <path
       style="fill:#241f1c;stroke:#000000;stroke-width:1px;stroke-linecap:butt;stroke-linejoin:miter;stroke-opacity:1"
       d="m 255.77232,267.96879 c -7.24718,-3.18169 -15.37816,-12.01971 -10.07516,-13.96403 5.303,-1.94431 24.03923,3.00488 28.81167,-15.90891 4.77244,-18.9138 -4.41892,-61.68896 -26.33756,-76.18317 -21.91864,-14.49422 -56.56298,-0.70718 -77.59755,2.47443 -21.03456,3.18161 -28.45835,-4.24218 -12.90305,-9.72178 15.5553,-5.47961 54.0883,-9.01475 76.18341,-10.78235 22.09511,-1.76761 27.75133,-1.76761 32.5239,3.71208 4.77257,5.47968 8.66122,16.4386 11.31264,27.22109 2.65142,10.78249 4.06548,21.38791 5.30281,30.40276 1.23734,9.01486 2.29788,16.43865 1.06052,26.33735 -1.23736,9.89871 -4.7725,22.27169 -9.72185,29.69565 -4.94936,7.42397 -11.31261,9.89856 -18.55978,6.71688 z"
       id="path3"
       inkscape:path-effect="#path-effect3"
       inkscape:original-d="m 256.65612,273.62512 c -8.13098,-8.83802 -16.26196,-17.67604 -24.39294,-26.51406 18.73698,4.94939 37.47321,9.89858 56.20981,14.84787 -9.19172,-42.77688 -18.38308,-85.55204 -27.57462,-128.32806 -34.64574,13.78759 -69.29008,27.57463 -103.93512,41.36194 -7.42409,-7.42409 -14.84788,-14.84788 -22.27182,-22.27181 38.53454,-3.53528 77.06754,-7.07042 115.60131,-10.60563 5.65645,0 11.31267,0 16.969,0 3.88881,10.95937 7.77746,21.91829 11.66619,32.87744 1.41411,10.60583 2.82817,21.21125 4.24225,31.81687 1.06058,7.42409 2.12112,14.84788 3.18169,22.27181 -3.53528,12.37348 -7.07042,24.74646 -10.60563,37.11969 -6.3635,2.47469 -12.72675,4.94929 -19.09012,7.42394 z" />
    <path
       style="fill:none;stroke:#000000;stroke-width:1px;stroke-linecap:butt;stroke-linejoin:miter;stroke-opacity:1"
       d="m 235.09135,199.91602 c -12.01971,-6.89365 -37.11969,-13.25703 -54.08878,-13.43373 -16.96909,-0.1767 -25.80693,5.83304 -30.04918,12.72677 -4.24224,6.89374 -3.88873,14.67104 2.47477,18.55977 6.3635,3.88873 18.73648,3.88873 34.99864,3.88873 16.26216,0 36.41244,0 47.01808,-3.71204 10.60563,-3.71205 11.66618,-11.13584 -0.35353,-18.0295 z"
       id="path4"
       inkscape:path-effect="#path-effect4"
       inkscape:original-d="m 248.17162,199.38574 c -25.09998,-6.36337 -50.19996,-12.72675 -75.29994,-19.09012 -8.8382,6.00997 -17.67604,12.01971 -26.51406,18.02956 0.35353,7.77762 0.70704,15.55492 1.06056,23.33238 12.37348,0 24.74646,0 37.11969,0 20.15109,0 40.30137,0 60.45206,0 1.06058,-7.42409 2.12113,-14.84788 3.18169,-22.27182 z" />
    <path
       style="fill:#21e9e9;stroke:#000000;stroke-width:1.00009252;stroke-linecap:butt;stroke-linejoin:miter;stroke-opacity:1;fill-opacity:1;fill-rule:nonzero;stroke-dasharray:none"
       d="m 352.81378,186.83575 c -13.43379,-4.06548 -25.09998,0.53029 -30.93307,7.42403 -5.83309,6.89375 -5.83309,16.08511 2.12128,20.68088 7.95438,4.59577 23.8625,4.59577 37.2964,4.06548 13.4339,-0.53029 24.39283,-1.59084 22.27155,-8.48462 -2.12128,-6.89378 -17.32237,-19.62028 -30.75616,-23.68577 z"
       id="path5"
       inkscape:path-effect="#path-effect5"
       inkscape:original-d="m 351.04618,178.17449 c -11.66619,4.59578 -23.33238,9.19155 -34.99856,13.78732 0,9.19172 0,18.38308 0,27.57462 15.90875,0 31.81687,0 47.72531,0 10.95936,-1.06058 21.91829,-2.12112 32.87743,-3.18169 -15.2017,-12.727 -30.40279,-25.4535 -45.60418,-38.18025 z"
       transform="matrix(1.1686174,0,0,1.9844817,-53.314941,-216.10997)" />
    <ellipse
       style="fill:#550000;fill-opacity:1;fill-rule:nonzero;stroke:#000000;stroke-width:1.523;stroke-dasharray:none;stroke-opacity:0"
       id="path13"
       cx="352.63702"
       cy="186.12871"
       rx="17.499281"
       ry="16.438719" />
    <ellipse
       style="fill:#822b2b;fill-opacity:0.7258687;fill-rule:nonzero;stroke:#000000;stroke-width:1.523;stroke-dasharray:none;stroke-opacity:0"
       id="path14"
       cx="192.49208"
       cy="205.74911"
       rx="23.862656"
       ry="11.666187" />
    <ellipse
       style="fill:#822b2b;fill-opacity:0.725869;fill-rule:nonzero;stroke:#000000;stroke-width:0.851399;stroke-dasharray:none;stroke-opacity:0"
       id="path15"
       cx="204.68855"
       cy="88.026688"
       rx="18.215363"
       ry="21.397051" />
    <path
       style="fill:none;stroke:#000000;stroke-width:1px;stroke-linecap:butt;stroke-linejoin:miter;stroke-opacity:1"
       d="m 96.157667,203.27448 c 1.767605,8.13097 -2.121051,10.60557 -6.186581,14.49432 -4.065529,3.88876 -8.307691,9.19146 -9.721817,13.96405 -1.414126,4.77258 -6.9e-5,9.01475 2.474591,12.37324 2.47466,3.35849 6.009794,5.83308 6.893633,9.8986 0.883839,4.06551 -0.88373,9.72173 0.707095,13.61052 1.590825,3.88878 6.540017,6.00986 10.605552,5.65637 4.06554,-0.3535 7.24717,-3.18161 8.83804,-14.84783 1.59088,-11.66622 1.59088,-32.17001 -2.47461,-44.89697 -4.06549,-12.72695 -12.19647,-17.67625 -17.499306,-24.0397 -5.302837,-6.36345 -7.777432,-14.14075 -5.302712,-11.13569 2.47472,3.00507 9.898511,16.79211 11.666115,24.92309 z"
       id="path16"
       inkscape:path-effect="#path-effect16"
       inkscape:original-d="m 101.814,208.93081 c -3.88873,2.47464 -7.777383,4.94924 -11.66619,7.42393 -4.24225,5.30282 -8.484415,10.60552 -12.72675,15.90844 1.414083,4.24225 2.828138,8.48442 4.24225,12.72675 3.535208,2.47465 7.070346,4.94924 10.605625,7.42394 -1.767604,5.65633 -3.535173,11.31255 -5.302813,16.969 4.949292,2.12112 9.898484,4.2422 14.847878,6.36337 3.18168,-2.82816 6.36331,-5.65627 9.54506,-8.4845 0,-20.50421 0,-41.008 0,-61.51262 -8.13098,-4.94929 -16.261959,-9.89859 -24.392938,-14.84788 -2.474695,-7.77761 -4.949291,-15.55491 -7.423937,-23.33237 7.424087,13.78759 14.847877,27.57463 22.271815,41.36194 z" />
    <path
       style="fill:#241f1c;stroke:#000000;stroke-width:1px;stroke-linecap:butt;stroke-linejoin:miter;stroke-opacity:1"
       d="m 232.43995,381.09545 c 1.94436,2.47464 10.42886,0 18.38315,-1.41409 7.95429,-1.41409 15.37808,-1.7676 30.40294,0.7071 15.02486,2.4747 37.64974,7.77741 55.14914,9.89852 17.49941,2.12112 29.87239,1.06057 34.64489,-5.65645 4.77251,-6.71702 1.9444,-19.09 -9.01494,-24.21603 -10.95933,-5.12603 -30.04908,-3.00495 -44.19,-1.59086 -14.14093,1.41409 -23.33228,2.12112 -35.52891,2.82817 -12.19662,0.70705 -27.39771,1.41408 -37.29633,5.47964 -9.89863,4.06556 -14.49431,11.48935 -12.54994,13.964 z"
       id="path17"
       inkscape:path-effect="#path-effect17"
       inkscape:original-d="m 225.89981,386.04474 c 8.4845,-2.47465 16.969,-4.94929 25.45349,-7.42394 7.42409,-0.35353 14.84788,-0.70704 22.27182,-1.06056 22.62578,5.30292 45.25066,10.60562 67.87599,15.90844 12.37348,-1.06059 24.74646,-2.12113 37.11969,-3.18169 -2.82822,-12.37348 -5.65633,-24.74646 -8.4845,-37.11969 -19.0905,2.12117 -38.18025,4.24225 -57.27037,6.36338 -9.19173,0.70705 -18.38308,1.41408 -27.57463,2.12112 -15.2017,0.70706 -30.40279,1.41408 -45.60418,2.12113 -4.59586,7.42408 -9.19154,14.84787 -13.78731,22.27181 z" />
    <path
       style="fill:#241f1c;stroke:#000000;stroke-width:1px;stroke-linecap:butt;stroke-linejoin:miter;stroke-opacity:1"
       d="m 278.39765,431.2954 c 3.71197,-3.18168 13.25703,-4.59577 21.91837,-5.12605 8.66133,-0.53027 16.43864,-0.17676 24.21618,3.88881 7.77753,4.06557 15.55483,11.84287 19.44356,19.09011 3.88873,7.24725 3.88873,13.96401 2.12109,15.73158 -1.76764,1.76757 -5.30278,-1.41405 -10.78242,-5.30283 -5.47965,-3.88877 -12.90344,-8.48445 -22.62539,-11.13586 -9.72194,-2.65142 -21.7414,-3.35845 -28.81184,-6.18666 -7.07044,-2.82822 -9.19152,-7.77741 -5.47955,-10.9591 z"
       id="path18"
       inkscape:path-effect="#path-effect18"
       inkscape:original-d="m 272.56455,429.5278 c 9.54507,-1.41408 19.09013,-2.82817 28.63519,-4.24225 7.77761,0.35353 15.55492,0.70704 23.33238,1.06056 7.77761,7.77762 15.55491,15.55492 23.33237,23.33238 0,6.71703 0,13.43379 0,20.15068 -3.53528,-3.18175 -7.07042,-6.36337 -10.60563,-9.54506 -7.42408,-4.59586 -14.84787,-9.19154 -22.27181,-13.78731 -12.01995,-0.70706 -24.03941,-1.41408 -36.05912,-2.12113 -2.12117,-4.94939 -4.24225,-9.89858 -6.36338,-14.84787 z" />
    <path
       style="fill:#deaa87;stroke:#000000;stroke-width:1px;stroke-linecap:butt;stroke-linejoin:miter;stroke-opacity:1"
       d="m 354.58139,75.653456 c -9.54507,2.474646 -11.31267,16.969 -2.65122,21.741481 8.66145,4.772483 27.75119,-0.17671 28.63482,-7.423983 0.88363,-7.247274 -16.43854,-16.792144 -25.9836,-14.317498 z"
       id="path19"
       inkscape:path-effect="#path-effect19"
       inkscape:original-d="m 346.80393,63.633748 c -1.76761,14.494354 -3.53521,28.988708 -5.30282,43.483062 19.09051,-4.94939 38.18025,-9.898584 57.27038,-14.847875 C 381.44862,82.723682 364.12645,73.17881 346.80393,63.633748 Z" />
    <path
       style="fill:none;stroke:#000000;stroke-width:1px;stroke-linecap:butt;stroke-linejoin:miter;stroke-opacity:1"
       d="m 94.036539,235.44487 c 0,0 -0.353521,7.42394 -0.353518,7.42386 4e-6,-7e-5 0.353518,-7.42386 0.353518,-7.42386 z"
       id="path20"
       inkscape:path-effect="#path-effect20"
       inkscape:original-d="m 94.39006,228.02093 c -0.353521,7.42394 -0.707042,14.84788 -1.060563,22.27181 0.353528,-7.42408 0.707042,-14.84787 1.060563,-22.27181 z" />
    <path
       style="fill:none;stroke:#000000;stroke-width:1px;stroke-linecap:butt;stroke-linejoin:miter;stroke-opacity:1"
       d="m 71.941487,202.03715 c -2.297885,-4.77253 -2.651406,12.19647 -0.530235,25.4536 2.121171,13.25712 6.71685,22.80199 6.893568,14.31722 0.176718,-8.48476 -4.065447,-34.99829 -6.363333,-39.77082 z"
       id="path21"
       inkscape:path-effect="#path-effect21"
       inkscape:original-d="m 69.997123,180.29562 c -0.353521,16.969 -0.707042,33.938 -1.060563,50.907 4.595863,9.54525 9.191542,19.09012 13.787313,28.63518 -4.242335,-26.51459 -8.4845,-53.02812 -12.72675,-79.54218 z" />
    <path
       style="fill:#241f1c;stroke:#241f1c;stroke-width:1px;stroke-linecap:butt;stroke-linejoin:miter;stroke-opacity:1"
       d="m 265.31738,267.08498 c -1.23733,4.77253 -0.17676,11.48943 4.24232,13.43376 4.41909,1.94434 12.1964,-0.88378 13.43367,-5.65637 1.23727,-4.7726 -4.06544,-11.48936 -8.48449,-13.43369 -4.41904,-1.94434 -7.95418,0.88377 -9.1915,5.6563 z"
       id="path22"
       inkscape:path-effect="#path-effect22"
       inkscape:original-d="m 263.01949,265.14062 c 1.06056,6.71689 2.12113,13.43379 3.18169,20.15068 7.77761,-2.82822 15.55492,-5.65633 23.33237,-8.4845 -5.30291,-6.71703 -10.60562,-13.43379 -15.90843,-20.15068 -3.53528,2.82822 -7.07042,5.65633 -10.60563,8.4845 z" />
    <rect
       style="mix-blend-mode:difference;fill:#00ffff;fill-opacity:0.725869;fill-rule:nonzero;stroke:#241f1c;stroke-width:1.223;stroke-dasharray:none;stroke-opacity:0;paint-order:markers fill stroke;filter:url(#filter33)"
       id="rect26"
       width="148.47874"
       height="512.25165"
       x="277.86737"
       y="-1.0605625"
       inkscape:label="rect26"
       transform="matrix(0.9706306,0,0,0.65520604,6.098913,35.447126)" />
    <rect
       style="display:inline;mix-blend-mode:difference;fill:#ff0000;fill-opacity:0.725869;fill-rule:nonzero;stroke:#241f1c;stroke-width:1.223;stroke-dasharray:none;stroke-opacity:0;paint-order:stroke fill markers;filter:url(#filter32)"
       id="rect27"
       width="211.05193"
       height="520.73615"
       x="69.997124"
       y="-1.0605625"
       transform="matrix(0.77430538,0,0,0.42449281,70.901209,92.493247)" />
  </g>
</svg>
